<svg width="34" height="30" viewBox="0 0 34 30" fill="none" xmlns="http://www.w3.org/2000/svg">
<path d="M1.12207 5.92456C1.12207 5.96483 1.12207 6.0051 1.12207 7.87817C1.12207 9.75125 1.12207 13.4559 1.14229 15.4248C1.16754 17.8825 1.32553 18.6127 1.48916 19.2228C1.66602 19.8822 2.10017 20.5236 2.48932 21.0739C3.02327 21.829 3.81612 22.4369 4.30701 22.7627C4.78005 23.0767 5.28694 23.2105 5.89978 23.4747C6.47858 23.7242 7.08379 23.6986 7.96138 23.8414C9.27523 24.0552 10.7535 23.9842 12.1869 24.0855C14.0044 24.2139 15.3388 24.1465 16.8372 24.2075C18.2132 24.2635 20.8433 24.2282 22.2584 24.2081C24.569 24.1752 26.2044 24.0257 26.8387 23.964C27.3505 23.8219 28.0822 23.6596 29.1657 23.4155C29.4329 23.3741 29.6756 23.3741 29.9256 23.3741" stroke="white" stroke-width="2" stroke-linecap="round"/>
<path d="M1 5.31426C1 5.23372 1 4.91036 1.04045 4.42287C1.09481 3.7677 1.85553 3.44484 2.54988 2.83533C2.9902 2.44881 3.57148 2.34662 4.50974 2.04095C5.31728 1.77787 5.90028 1.65352 6.69636 1.45096C7.23839 1.31304 7.7388 1.28745 8.27014 1.18617C8.63006 1.11756 8.96571 1.12516 10.2012 1.06414C13.4147 0.90545 15.707 1.08367 16.1335 1.14468C17.5725 1.35051 18.1571 1.28745 18.648 1.38873C19.8497 1.63666 21.8342 1.77555 22.569 1.87683C23.3018 1.97783 23.8761 2.0196 24.4491 2.12088C25.1367 2.2424 25.6338 2.26364 26.2864 2.36493C27.6218 2.57214 28.8549 2.50769 29.6791 2.62911C30.205 2.70657 30.6591 3.15686 31.3332 3.80664C31.8311 4.28655 32.1299 5.18735 32.3769 5.92194C32.5786 6.5219 32.7035 7.02016 32.7654 7.91399C32.8276 8.81147 32.9082 9.82794 32.9695 11.4405C33.0261 12.9313 32.9903 15.7913 32.9701 17.3245C32.945 19.229 32.7452 20.1939 32.6232 21.0328C32.5463 21.5622 32.2966 22.0292 31.9908 22.4776C31.6928 22.9145 30.9508 22.9663 30.4182 23.1292C30.1737 23.2104 29.9273 23.3324 29.6424 23.4544C29.4787 23.4959 29.2765 23.4959 29.0681 23.4959" stroke="white" stroke-width="2" stroke-linecap="round"/>
<path d="M28.0703 24.0967C28.0703 24.4064 28.0881 25.034 28.124 25.1457C28.1678 25.282 28.1957 25.4268 28.2584 25.5476C28.3249 25.6756 28.375 25.8019 28.4245 25.9183C28.4741 26.0348 28.5634 26.1502 28.6129 26.2667C28.6638 26.3863 28.7249 26.5077 28.7744 26.6416C28.8264 26.7824 28.8955 26.8828 28.9359 26.9945C28.9842 27.1283 29.0478 27.2311 29.1197 27.3384C29.1916 27.4458 29.2631 27.5527 29.335 27.66C29.411 27.7735 29.4785 27.901 29.528 28.0083C29.581 28.1233 29.6846 28.2049 29.7433 28.3031C29.806 28.408 29.8375 28.5173 29.9002 28.6246C29.9632 28.7319 29.9901 28.8211 30.0036 28.8924C30.0081 28.9283 30.0081 28.9637 30.035 29.0001" stroke="white" stroke-width="2" stroke-linecap="round"/>
<path d="M23.1846 24.8381C23.3059 25.0407 23.7141 25.5264 24.1431 26.0565C24.5358 26.5419 25.3442 27.3543 26.307 27.9888C26.835 28.3368 27.3494 28.4574 27.8403 28.6404C28.0849 28.782 28.3312 28.9052 28.6566 28.9662C28.8607 28.987 29.1438 28.987 29.4356 28.987" stroke="white" stroke-width="2" stroke-linecap="round"/>
<path d="M7.17442 11.292C7.13397 11.5349 6.97095 12.0217 6.96973 13.5233C6.96935 13.99 7.29576 14.1791 7.54028 14.3414C7.78481 14.5037 8.23341 14.5867 8.78435 14.5464C9.48134 14.4955 9.86847 13.6129 10.2374 13.1041C10.6231 12.5722 10.6063 11.2213 10.3422 10.3177C10.2496 10.0009 9.66991 9.94977 9.11896 9.9699C8.76525 9.98283 8.52389 10.1121 8.25915 10.2536C7.74681 10.8027 7.62424 11.1688 7.56296 11.4525C7.54212 11.6154 7.54212 11.8167 7.66469 12.0242" stroke="white" stroke-width="2" stroke-linecap="round"/>
<path d="M17.5457 10.8054C17.4648 10.8054 17.3017 10.8457 17.0774 10.9671C16.5782 11.2374 16.4842 11.9012 16.2189 12.4912C15.9809 13.0202 15.9523 14.2538 16.4199 15.1355C16.5608 15.4013 16.9316 15.4009 17.2368 15.5229C17.6345 15.6819 18.0347 15.4838 18.2995 15.2813C18.9086 14.8153 18.9748 14.2245 19.2199 13.5748C19.2616 12.8481 19.1807 12.2709 18.9975 12.0275C18.8951 11.9049 18.7738 11.7841 18.5262 11.5376" stroke="white" stroke-width="2" stroke-linecap="round"/>
<path d="M24.043 10.0734C24.043 10.88 24.2048 12.5114 24.532 13.0002C24.695 13.2436 24.8997 13.4083 25.1442 13.4895C25.3888 13.5706 25.9587 13.6121 26.6935 13.592C27.109 13.5806 27.3915 13.329 27.6771 13.0246C28.0779 12.5973 28.046 11.9477 27.9664 11.0533C27.0692 10.1966 26.2516 9.95137 25.6192 9.85009C25.3544 9.82935 24.95 9.82935 24.5332 9.82935" stroke="white" stroke-width="2" stroke-linecap="round"/>
</svg>
