<svg width="34" height="28" viewBox="0 0 34 28" fill="none" xmlns="http://www.w3.org/2000/svg">
<path d="M21.5942 26.0429C21.3819 26.0429 21.1696 26.0429 20.1225 25.7797C19.0754 25.5165 17.2 24.9901 15.3139 24.2803C13.4278 23.5705 11.5878 22.6932 9.87916 21.5394C8.1705 20.3856 6.64896 18.9818 5.40514 17.4691C4.16131 15.9564 3.24131 14.3773 2.57275 12.9145C1.90419 11.4518 1.51496 10.1534 1.26137 9.02828C1.00778 7.90318 0.901628 6.99077 1.11233 6.06454C1.32303 5.1383 1.8538 4.22589 2.74646 3.49267C3.63912 2.75944 4.87758 2.23305 6.25866 1.94433C7.63973 1.65562 9.12589 1.62052 10.5461 1.95337C11.9663 2.28622 13.2756 2.98808 14.3392 3.82339C15.4029 4.6587 16.1814 5.60621 16.777 6.44524C17.836 7.93699 18.2337 8.98999 18.3586 8.94161C18.6718 8.82029 18.4482 7.66498 18.8556 6.65048C19.2631 5.63598 20.0415 4.5832 20.9556 3.70748C21.8697 2.83175 22.8959 2.16499 24.0084 1.69869C25.1208 1.23238 26.2885 0.986729 27.4209 1.00055C28.5532 1.01438 29.6147 1.29512 30.4623 1.79067C31.31 2.28622 31.9115 2.98808 32.3275 3.7883C32.7436 4.58852 32.9559 5.46584 32.9945 6.65473C33.0331 7.84363 32.8915 9.31753 31.8456 11.7613C30.7996 14.205 28.8534 17.5739 27.1608 20.099C25.4683 22.624 24.0883 24.2032 23.1473 25.1922C22.2064 26.1812 21.7464 26.5321 21.058 27" stroke="white" stroke-width="2" stroke-linecap="round"/>
</svg>
