<svg width="34" height="10" viewBox="0 0 34 10" fill="none" xmlns="http://www.w3.org/2000/svg">
<path d="M1 4.24819C1 3.6834 1.05958 3.18066 1.20945 2.71856C1.38735 2.17001 1.89918 1.68313 2.70898 1.32693C4.6697 0.464494 6.82842 1.46278 8.15824 2.53244C8.68698 2.95775 8.94276 3.74544 9.2136 4.45677C9.46336 5.11275 9.18652 5.88477 8.88679 6.5608C8.57951 7.25386 7.984 7.66897 7.35475 8.06047C6.49957 8.59254 5.33882 8.52684 4.43693 8.45625C3.86519 8.41149 3.52962 7.81659 3.22899 7.24753C2.95659 6.73189 2.98614 6.10512 3.04573 5.53606C3.0764 5.24307 3.22448 4.967 3.37524 4.78623C4.18685 4.39152 5.2684 4.24819 6.02042 4.35408C6.29578 4.45998 6.35536 4.67177 6.41675 5.31785" stroke="white" stroke-width="2" stroke-linecap="round"/>
<path d="M12.8154 4.24819C12.8154 3.6834 12.875 3.18066 13.0249 2.71856C13.2028 2.17001 13.7146 1.68313 14.5244 1.32693C16.4851 0.464494 18.6439 1.46278 19.9737 2.53244C20.5024 2.95775 20.7582 3.74544 21.029 4.45677C21.2788 5.11275 21.0019 5.88477 20.7022 6.5608C20.3949 7.25386 19.7994 7.66897 19.1702 8.06047C18.315 8.59254 17.1542 8.52684 16.2524 8.45625C15.6806 8.41149 15.3451 7.81659 15.0444 7.24753C14.772 6.73189 14.8016 6.10512 14.8612 5.53606C14.8918 5.24307 15.0399 4.967 15.1907 4.78623C16.0023 4.39152 17.0838 4.24819 17.8359 4.35408C18.1112 4.45998 18.1708 4.67177 18.2322 5.31785" stroke="white" stroke-width="2" stroke-linecap="round"/>
<path d="M24.6895 4.74501C24.6895 4.18023 24.749 3.67749 24.8989 3.21539C25.0768 2.66683 25.5886 2.17996 26.3984 1.82376C28.3592 0.96132 30.5179 1.9596 31.8477 3.02927C32.3764 3.45458 32.6322 4.24227 32.9031 4.9536C33.1528 5.60958 32.876 6.3816 32.5762 7.05763C32.269 7.75069 31.6734 8.1658 31.0442 8.5573C30.189 9.08936 29.0283 9.02367 28.1264 8.95307C27.5546 8.90832 27.2191 8.31341 26.9184 7.74435C26.646 7.22871 26.6756 6.60195 26.7352 6.03289C26.7659 5.7399 26.9139 5.46383 27.0647 5.28305C27.8763 4.88835 28.9579 4.74501 29.7099 4.85091C29.9852 4.95681 30.0448 5.1686 30.1062 5.81468" stroke="white" stroke-width="2" stroke-linecap="round"/>
</svg>
