<svg width="34" height="27" viewBox="0 0 34 27" fill="none" xmlns="http://www.w3.org/2000/svg">
<path d="M14.2578 21.2483C14.6645 20.5811 15.0712 19.9139 15.6561 19.0142C16.2411 18.1145 16.9919 17.0025 17.5038 16.1755C18.3127 14.8687 18.6491 14.1575 18.8699 13.8533C19.0548 13.5986 19.4994 12.8144 20.4754 11.3751C21.699 9.57057 22.662 8.38182 22.9616 7.93317C23.3976 7.28017 24.0812 6.55448 24.5112 6.02206C24.6842 5.78233 24.8434 5.55608 24.9695 5.36401C25.033 5.26725 25.0956 5.17193 25.2549 5.07373" stroke="white" stroke-width="2" stroke-linecap="round"/>
<path d="M18.7129 25.0015C19.1196 24.3343 19.5263 23.6671 20.1112 22.7674C20.6962 21.8677 21.447 20.7557 21.9589 19.9287C22.7678 18.6219 23.1041 17.9107 23.325 17.6064C23.5099 17.3518 23.9545 16.5676 24.9305 15.1283C26.1541 13.3237 27.1171 12.135 27.4167 11.6863C27.8527 11.0333 28.5363 10.3077 28.9662 9.77524C29.1392 9.53551 29.2985 9.30925 29.4246 9.11718C29.4881 9.02042 29.5507 8.92511 29.71 8.8269" stroke="white" stroke-width="2" stroke-linecap="round"/>
<path d="M14.2578 21.1521C14.2578 21.1839 14.2578 21.2156 14.2578 21.788C14.2578 22.3604 14.2578 23.4724 14.2735 24.0929C14.2891 24.7134 14.3204 24.8087 14.4474 25.0995" stroke="white" stroke-width="2" stroke-linecap="round"/>
<path d="M14.6367 25.1958C15.2321 25.1958 16.4361 25.1323 17.3666 25.0837C17.6685 25.036 17.8903 25.0033 18.1269 24.9874C18.2383 24.9715 18.3321 24.9397 18.7132 24.907" stroke="white" stroke-width="2" stroke-linecap="round"/>
<path d="M25.5039 4.94482C25.7295 4.96766 26.6338 5.28809 27.1496 5.56698C27.6521 5.83866 28.3183 6.37323 28.6376 6.71995C28.8687 6.97097 29.1143 7.18156 29.3194 7.44661C29.5013 7.78157 29.6376 7.98919 29.717 8.12725C29.7514 8.1968 29.7739 8.26532 29.7971 8.54353" stroke="white" stroke-width="2" stroke-linecap="round"/>
<path d="M25.4355 4.87554C25.458 4.73782 25.5936 4.46169 25.7981 4.18452C26.1446 3.71478 26.684 3.28519 26.9109 2.97377C27.27 2.48088 27.5467 2.29278 27.9781 1.86682C28.115 1.69346 28.2288 1.55435 28.3535 1.41629C28.4108 1.34674 28.4558 1.27822 28.6384 1.13843" stroke="white" stroke-width="2" stroke-linecap="round"/>
<path d="M29.6611 8.88975C29.7061 8.75203 29.8874 8.43022 30.0693 8.12952C30.2411 7.84571 30.4775 7.57622 30.6939 7.31047C30.8991 7.05842 31.159 6.81496 31.3075 6.53779C31.4613 6.25081 31.6592 5.98449 32.0898 5.535C32.4544 5.22254 32.6364 4.9464 32.8064 4.68065C32.8633 4.62252 32.9308 4.57685 33.0003 4.52979" stroke="white" stroke-width="2" stroke-linecap="round"/>
<path d="M28.9795 1C29.4749 1 30.5223 1.09135 30.8184 1.23011C31.1409 1.38123 31.4082 1.73635 31.8174 2.15193C32.1144 2.4535 32.2723 2.79797 32.4542 3.07514C32.6296 3.34223 32.7043 3.62844 32.7953 3.90561C32.8181 3.97516 32.8406 4.04367 32.8634 4.11322C32.8863 4.18277 32.9088 4.25129 32.9319 4.5295" stroke="white" stroke-width="2" stroke-linecap="round"/>
<path d="M1 25.1948C1.01952 25.0752 1.17628 24.7166 1.4132 24.3949C1.66621 24.0513 2.17956 23.5763 3.50877 22.5352C4.02789 22.1286 4.74216 21.9519 5.56856 21.7717C6.30257 21.6116 6.77651 21.7897 6.98296 21.9891C7.42845 22.4195 7.46685 22.7701 7.70347 23.5694C7.88147 24.1707 7.86201 24.6325 7.93063 24.9232C8.02957 25.3425 8.21576 25.6537 8.46243 25.855C8.71036 26.0573 9.45328 26.0358 10.1868 25.8664C10.5807 25.7755 10.9558 25.5961 11.3409 25.4955C11.6618 25.4116 11.9816 25.3954 12.2386 25.3152C12.495 25.235 13.1221 25.1948 13.8612 25.1849C14.1319 25.1749 14.1904 25.1551 14.2508 25.1347" stroke="white" stroke-width="2" stroke-linecap="round"/>
</svg>
